<svg width="118" height="118" viewBox="0 0 118 118" fill="none" xmlns="http://www.w3.org/2000/svg">
<rect x="2.7" y="2.7" width="112.6" height="112.6" rx="56.3" fill="url(#paint0_radial_39_157)"/>
<path d="M77.9869 58.5154C77.9869 63.2386 77.2497 67.4779 75.7751 71.2334C74.3236 74.989 71.697 77.8344 67.8954 79.7698C70.4068 80.1845 72.5495 80.8066 74.3236 81.636C76.1207 82.4424 77.6413 83.6059 78.8855 85.1266C80.1527 86.6702 81.2241 88.7323 82.0996 91.3128L72.8375 94.4578C71.8237 92.0616 70.7293 90.0456 69.5543 88.4098C68.3793 86.7739 66.9047 85.5413 65.1306 84.7118C63.3796 83.8824 61.1101 83.4677 58.3223 83.4677C54.3364 83.4677 51.0186 82.4654 48.369 80.461C45.7425 78.4565 43.7725 75.5995 42.4593 71.8901C41.169 68.1576 40.5239 63.6994 40.5239 58.5154C40.5239 53.4466 41.2036 49.0344 42.5629 45.2789C43.9453 41.5234 46.0189 38.6088 48.7837 36.5352C51.5716 34.4386 55.0506 33.3902 59.2209 33.3902C63.4141 33.3902 66.8932 34.404 69.658 36.4315C72.4458 38.459 74.5309 41.3506 75.9133 45.1061C77.2957 48.8616 77.9869 53.3314 77.9869 58.5154ZM66.1674 58.5154C66.1674 52.6632 65.6951 48.4008 64.7505 45.7282C63.8058 43.0555 61.9626 41.7192 59.2209 41.7192C56.5252 41.7192 54.682 43.067 53.6913 45.7627C52.7236 48.4354 52.2397 52.6862 52.2397 58.5154C52.2397 64.3675 52.7351 68.6414 53.7258 71.3371C54.7396 74.0328 56.5713 75.3806 59.2209 75.3806C61.9857 75.3806 63.8289 74.0328 64.7505 71.3371C65.6951 68.6184 66.1674 64.3445 66.1674 58.5154Z" fill="#10263D"/>
<rect x="2.7" y="2.7" width="112.6" height="112.6" rx="56.3" stroke="#003E7D" stroke-width="5.4"/>
<defs>
<radialGradient id="paint0_radial_39_157" cx="0" cy="0" r="1" gradientUnits="userSpaceOnUse" gradientTransform="translate(59 4.91667) rotate(90) scale(113.083)">
<stop stop-color="#CAF2FF"/>
<stop offset="0.166667" stop-color="#CAF2FF"/>
<stop offset="0.166667" stop-color="#A2D8F9"/>
<stop offset="0.333333" stop-color="#A2D8F9"/>
<stop offset="0.333333" stop-color="#79BFF4"/>
<stop offset="0.5" stop-color="#79BFF4"/>
<stop offset="0.5" stop-color="#51A5EE"/>
<stop offset="0.666667" stop-color="#51A5EE"/>
<stop offset="0.666667" stop-color="#288BE9"/>
<stop offset="0.833333" stop-color="#288BE9"/>
<stop offset="0.833333" stop-color="#0071E3"/>
<stop offset="1" stop-color="#0071E3"/>
</radialGradient>
</defs>
</svg>
